<svg fill="#000000" xmlns="http://www.w3.org/2000/svg"  viewBox="0 0 48 48" width="48px" height="48px"><polygon points="30.072,30.072 27.238,21.883 21.884,27.238"/><polygon points="18,36.879 18,29.531 12.797,31.676"/><path d="M42,23.121l-0.024-0.024c-1.304,2.077-4.021,6.178-7.141,9.616l6.465,6.465C41.744,38.385,42,37.472,42,36.5V23.121z"/><polygon points="36.879,18 31.52,12.641 29.273,18"/><path d="M30.106,21l3.119,9.01c2.957-3.408,5.511-7.38,6.52-9.01H30.106z"/><path d="M32.735,34.856c-3.168,2.975-7.047,5.637-9.39,7.144H36.5c0.972,0,1.885-0.256,2.678-0.701L32.735,34.856z"/><path d="M6,29.121V34.5c0,4.136,3.364,7.5,7.5,7.5h5.379L6,29.121z"/><path d="M32.069,8.948c0.002,0.002,0.004,0.004,0.006,0.006l9.484,9.484c0.001,0.001,0.001,0.001,0.002,0.002L42,18.879V13.5	C42,9.364,38.636,6,34.5,6h-5.379L32.069,8.948z"/><path d="M21,30.106v9.772l0.033,0.033c1.968-1.24,5.824-3.799,9.022-6.671L21,30.106z"/><path d="M10.499,29.378l8.51-3.508l6.389-6.389l3.83-9.133L25.46,6.582l-8.754,2.824c-0.226,0.073-0.432,0.199-0.6,0.367l-6.81,6.81	c-0.179,0.179-0.31,0.4-0.38,0.643L6.541,25.42L10.499,29.378z"/></svg>